<svg xmlns="http://www.w3.org/2000/svg" xmlns:xlink="http://www.w3.org/1999/xlink" width="27" height="45" viewBox="0 0 27 45"><defs><path id="lfzta" d="M749.094 1045.94h-16.71c-.631 0-1.144-.272-1.144-.606v-1.364h18.999v1.364c0 .334-.513.605-1.145.605"/><path id="lfztb" d="M749.094 1045.94h-16.71c-.631 0-1.144-.272-1.144-.606v-1.364h18.999v1.364c0 .334-.513.605-1.145.605z"/><path id="lfztc" d="M730.29 1043.965a2.29 2.29 0 0 1-2.29-2.29v-32.006l3.789-3.789h17.906l3.788 3.789v32.006a2.29 2.29 0 0 1-2.29 2.29z"/><path id="lfztd" d="M751.193 1043.965H730.29a2.29 2.29 0 0 1-2.29-2.29v-32.006l3.789-3.789h17.906l3.788 3.789v32.006a2.29 2.29 0 0 1-2.29 2.29z"/><path id="lfzte" d="M749.683 1005.881h-17.882c-.79 0-1.431-.64-1.431-1.431v-.019c0-.79.64-1.431 1.431-1.431h17.882c.79 0 1.431.64 1.431 1.431v.019c0 .79-.64 1.431-1.431 1.431"/><path id="lfztf" d="M749.683 1005.881h-17.882c-.79 0-1.431-.64-1.431-1.431v-.019c0-.79.64-1.431 1.431-1.431h17.882c.79 0 1.431.64 1.431 1.431v.019c0 .79-.64 1.431-1.431 1.431z"/></defs><g><g transform="translate(-727 -1002)"><use fill="#d5d6db" xlink:href="#lfzta"/></g><g transform="translate(-727 -1002)"><use fill="#fff" fill-opacity="0" stroke="#333" stroke-linejoin="round" stroke-miterlimit="50" xlink:href="#lfztb"/></g><g transform="translate(-727 -1002)"><use fill="#47abdd" xlink:href="#lfztc"/></g><g transform="translate(-727 -1002)"><use fill="#fff" fill-opacity="0" stroke="#333" stroke-linejoin="round" stroke-miterlimit="50" xlink:href="#lfztd"/></g><g transform="translate(-727 -1002)"><use fill="#d5d6db" xlink:href="#lfzte"/></g><g transform="translate(-727 -1002)"><use fill="#fff" fill-opacity="0" stroke="#333" stroke-linejoin="round" stroke-miterlimit="50" xlink:href="#lfztf"/></g></g></svg>