<?xml version="1.0" encoding="UTF-8" standalone="no"?>
<!-- Created with Inkscape (http://www.inkscape.org/) -->

<svg
   xmlns:dc="http://purl.org/dc/elements/1.1/"
   xmlns:cc="http://creativecommons.org/ns#"
   xmlns:rdf="http://www.w3.org/1999/02/22-rdf-syntax-ns#"
   xmlns:svg="http://www.w3.org/2000/svg"
   xmlns="http://www.w3.org/2000/svg"
   xmlns:xlink="http://www.w3.org/1999/xlink"
   xmlns:sodipodi="http://sodipodi.sourceforge.net/DTD/sodipodi-0.dtd"
   xmlns:inkscape="http://www.inkscape.org/namespaces/inkscape"
   version="1.1"
   width="28.589001"
   height="61.639999"
   viewBox="0 0 28.589001 61.639999"
   id="svg2"
   sodipodi:docname="female-gray.svg"
   inkscape:version="0.92.2 5c3e80d, 2017-08-06">
  <sodipodi:namedview
     pagecolor="#ffffff"
     bordercolor="#666666"
     borderopacity="1"
     objecttolerance="10"
     gridtolerance="10"
     guidetolerance="10"
     inkscape:pageopacity="0"
     inkscape:pageshadow="2"
     inkscape:window-width="1436"
     inkscape:window-height="788"
     id="namedview9"
     showgrid="false"
     inkscape:zoom="3.8064516"
     inkscape:cx="24.220339"
     inkscape:cy="30.64"
     inkscape:window-x="0"
     inkscape:window-y="0"
     inkscape:window-maximized="0"
     inkscape:current-layer="svg2"
     fit-margin-top="0"
     fit-margin-left="0"
     fit-margin-right="0"
     fit-margin-bottom="0" />
  <metadata
     id="metadata15">
    <rdf:RDF>
      <cc:Work
         rdf:about="">
        <dc:format>image/svg+xml</dc:format>
        <dc:type
           rdf:resource="http://purl.org/dc/dcmitype/StillImage" />
        <dc:title></dc:title>
      </cc:Work>
    </rdf:RDF>
  </metadata>
  <defs
     id="defs4">
    <path
       d="m 364.122,1002.976 c 1.368,0 2.54,-0.45 3.45,-1.387 0.937,-0.959 1.428,-2.15 1.428,-3.589 0,-1.367 -0.49,-2.54 -1.428,-3.508 -0.905,-0.996 -2.082,-1.492 -3.45,-1.492 -1.457,0 -2.665,0.496 -3.67,1.492 -0.973,0.963 -1.452,2.14 -1.452,3.508 0,1.438 0.479,2.63 1.457,3.589 1.005,0.937 2.212,1.387 3.665,1.387 z m -0.312,31.06 v 16.439 c 0,0.646 -0.213,1.182 -0.613,1.568 -0.4,0.404 -0.922,0.596 -1.563,0.596 -0.648,0 -1.2,-0.193 -1.629,-0.596 -0.459,-0.386 -0.67,-0.922 -0.67,-1.568 v -16.44 h -6.16 l 6.41,-21.64 h -1.103 c -0.703,2.425 -1.295,4.376 -1.758,5.925 -0.418,1.54 -0.88,3.003 -1.282,4.41 -0.458,1.39 -0.764,2.27 -0.795,2.57 -0.279,0.92 -0.887,1.364 -1.84,1.364 l -0.485,-0.117 c -0.889,-0.329 -1.322,-0.904 -1.322,-1.723 0,-0.224 0.031,-0.408 0.121,-0.592 0.064,-0.159 0.248,-0.702 0.463,-1.625 0.248,-0.915 0.58,-2.053 0.981,-3.376 0.4,-1.344 0.832,-2.799 1.285,-4.36 0.463,-1.57 0.887,-3.08 1.408,-4.535 0.306,-1.116 0.98,-2.132 2.024,-3.01 1.038,-0.911 2.119,-1.326 3.246,-1.326 h 7.54 c 1.165,0 2.298,0.415 3.31,1.325 0.983,0.883 1.69,1.895 2.085,3.01 0.422,1.456 0.854,2.967 1.28,4.536 0.437,1.561 0.896,3.016 1.265,4.36 0.39,1.324 0.733,2.461 0.974,3.376 0.244,0.923 0.402,1.466 0.487,1.625 l 0.12,0.485 c 0,0.99 -0.462,1.57 -1.35,1.824 l -0.451,0.123 c -0.977,0 -1.592,-0.446 -1.836,-1.363 -0.068,-0.3 -0.342,-1.181 -0.705,-2.57 -0.428,-1.408 -0.864,-2.87 -1.354,-4.411 -0.49,-1.543 -1.065,-3.5 -1.767,-5.93 h -1.106 l 6.4,21.646 h -6.062 v 16.44 c 0,0.646 -0.184,1.181 -0.674,1.568 -0.433,0.404 -0.953,0.596 -1.592,0.596 -0.674,0 -1.17,-0.193 -1.591,-0.596 -0.4,-0.387 -0.58,-0.922 -0.58,-1.569 v -16.44 z"
       id="lp6la"
       inkscape:connector-curvature="0" />
  </defs>
  <g
     id="g7"
     style="stroke:#969696;stroke-opacity:1">
    <g
       transform="translate(-350,-992)"
       id="g9"
       style="stroke:#969696;stroke-opacity:1">
      <use
         id="use11"
         style="fill:#ffffff;fill-opacity:0;stroke:#969696;stroke-width:2;stroke-linecap:round;stroke-linejoin:round;stroke-miterlimit:50;stroke-opacity:1"
         x="0"
         y="0"
         width="29"
         height="62"
         xlink:href="#lp6la" />
    </g>
  </g>
</svg>
