<svg id="Calque_1" data-name="Calque 1" xmlns="http://www.w3.org/2000/svg" xmlns:xlink="http://www.w3.org/1999/xlink" viewBox="0 0 633.76 179.05"><defs><style>.cls-1{fill:url(#Dégradé_sans_nom_40);}.cls-2{fill:#0098e5;}.cls-3{fill:#fff;opacity:0.5;}.cls-4{fill:#66cb28;}</style><linearGradient id="Dégradé_sans_nom_40" x1="142.02" y1="43.04" x2="142.02" y2="222.09" gradientUnits="userSpaceOnUse"><stop offset="0.3" stop-color="#0098e5"/><stop offset="0.34" stop-color="#059adc"/><stop offset="0.41" stop-color="#14a1c4"/><stop offset="0.49" stop-color="#2cac9c"/><stop offset="0.59" stop-color="#4dbb65"/><stop offset="0.7" stop-color="#77ce1f"/><stop offset="0.7" stop-color="#78ce1e"/></linearGradient></defs><title>LOGO_H4H_QUADRI</title><path class="cls-1" d="M201,142.52H187.14a6.84,6.84,0,0,1-6.84-6.84v-3.25a8.38,8.38,0,0,0-8.38-8.38h-36.7a1.37,1.37,0,0,1,0-2.73h47.9a5.81,5.81,0,0,0,5.76-4.5,5.66,5.66,0,0,0-5.54-6.8H156.21a4.3,4.3,0,0,1-4.28-3.38,4.17,4.17,0,0,1,4.09-5h13.39A7.54,7.54,0,0,0,177,95.24,7.34,7.34,0,0,0,169.7,87H148.22A2.32,2.32,0,0,1,146,85.45a2.26,2.26,0,0,1,2.14-3h9.5a7.12,7.12,0,0,0,7.13-7.09A19.94,19.94,0,0,0,161.56,65h0c-1.74-2.38-3.36-4.69-4.85-6.86h0c-2.94-3.78-8.07-13.11-8.38-13.82-.73-1.71-2.59-1.72-3.17-.2a82.92,82.92,0,0,1-4.2,9.56c-4.22,7.52-9.68,14.42-15.29,21-1.72,2.12-3.49,4.22-5.3,6.25-4.63,5.2-9.37,10.7-13.9,16.3a203.08,203.08,0,0,0-17.23,24.22,64.39,64.39,0,0,0-10,34.5c0,36.53,30.49,66.13,68.09,66.13h.3a69.63,69.63,0,0,0,12.42-1.16,60.77,60.77,0,0,0,22.1-9.18h0a1.48,1.48,0,0,0-.83-2.7H148.8a1.32,1.32,0,0,1,0-2.64h13.46a5.59,5.59,0,0,0,5.55-4.33,5.46,5.46,0,0,0-5.34-6.57H124.32a2.44,2.44,0,0,1-2.37-1.61,2.38,2.38,0,0,1,2.26-3.13h70.61a5.52,5.52,0,0,0,5.4-6.64,5.65,5.65,0,0,0-5.61-4.38H131.48c-.06,0,19.35,0,19.29,0a4.45,4.45,0,0,1-1-8.84l.42,0h28.2a7.54,7.54,0,0,0,7.58-6.44,7.34,7.34,0,0,0-7.29-8.25H163.64a3.18,3.18,0,0,1,0-6.35h37.51a3.64,3.64,0,0,0,3.58-4.3A3.77,3.77,0,0,0,201,142.52Z" transform="translate(-79.24 -43.04)"/><path class="cls-2" d="M695.2,162.8c-1.94,2.34-2,11.61-2,11.61s9.61-2.47,11.54-4.81a5.22,5.22,0,0,0-1.25-7.64A6.18,6.18,0,0,0,695.2,162.8Z" transform="translate(-79.24 -43.04)"/><path class="cls-2" d="M710.19,172.81c-1.68-.19-6.15,2.13-6.15,2.13s4,3.26,5.66,3.45a2.87,2.87,0,0,0,3.29-2.45A3,3,0,0,0,710.19,172.81Z" transform="translate(-79.24 -43.04)"/><polygon class="cls-2" points="174.21 29.52 143.25 29.52 143.25 4.12 135.08 4.12 135.08 65.14 143.25 65.14 143.25 37.19 174.21 37.19 174.21 65.14 182.38 65.14 182.38 4.12 174.21 4.12 174.21 29.52"/><polygon class="cls-2" points="214.46 30.76 197.9 4.12 187.56 4.12 210.37 38.94 210.37 65.14 218.54 65.14 218.54 38.94 241.35 4.12 231.53 4.12 214.46 30.76"/><path class="cls-2" d="M373.07,59.79a26.18,26.18,0,0,0-5.4-5.83,31.15,31.15,0,0,0-13.05-6.12,32.38,32.38,0,0,0-6.37-.68H324.68v61h23.57a32,32,0,0,0,13.05-2.89,31.18,31.18,0,0,0,6.37-3.92,26,26,0,0,0,5.4-5.83,29.51,29.51,0,0,0,3.72-7.85,34.1,34.1,0,0,0,1.37-10,34.17,34.17,0,0,0-1.37-10A29.51,29.51,0,0,0,373.07,59.79Zm-3.58,17.88a26.89,26.89,0,0,1-1.82,10.38,19.4,19.4,0,0,1-4.95,7,20,20,0,0,1-7.43,4.08,31.82,31.82,0,0,1-9.42,1.33h-13V54.82h13a32.25,32.25,0,0,1,9.42,1.33,20,20,0,0,1,7.43,4.09,19.31,19.31,0,0,1,4.94,7A26.78,26.78,0,0,1,369.49,77.67Z" transform="translate(-79.24 -43.04)"/><path class="cls-2" d="M424.68,75.24a15.17,15.17,0,0,0,4.13-11c0-3.81-.74-6.89-2.2-9.14a14.54,14.54,0,0,0-5.71-5.14,23.64,23.64,0,0,0-7.84-2.25,73.46,73.46,0,0,0-8.66-.51H388.54v61h8.17V81.24H405l16.27,26.94h10L414.15,80.43A19.22,19.22,0,0,0,424.68,75.24Zm-6.15-5.67a9.64,9.64,0,0,1-4.18,2.77,20.68,20.68,0,0,1-5.7,1.07c-2.08.12-4.13.17-6.11.17h-5.83V54.82h9.47a40.44,40.44,0,0,1,5.14.33,13.85,13.85,0,0,1,4.49,1.35A8.13,8.13,0,0,1,419,59.32a8.86,8.86,0,0,1,1.19,4.88A8,8,0,0,1,418.53,69.57Z" transform="translate(-79.24 -43.04)"/><path class="cls-2" d="M467.34,47.16H460l-26.9,61h9.21l6.18-14.74h29.28l6.1,14.74h9.45l-25.8-60.7Zm7.25,38.62h-22.9L463.42,58Z" transform="translate(-79.24 -43.04)"/><polygon class="cls-2" points="406.36 11.78 426.18 11.78 426.18 65.14 434.35 65.14 434.35 11.78 454.17 11.78 454.17 4.12 406.36 4.12 406.36 11.78"/><rect class="cls-2" x="461.5" y="4.12" width="8.17" height="61.02"/><path class="cls-2" d="M614,54.72A31,31,0,0,0,603.93,48a35.09,35.09,0,0,0-25.56,0,31.24,31.24,0,0,0-10.08,6.68,30.26,30.26,0,0,0-6.63,10.17,35.62,35.62,0,0,0,0,25.55,30.06,30.06,0,0,0,6.63,10.17,30.92,30.92,0,0,0,10.08,6.68,35.09,35.09,0,0,0,25.56,0A30.71,30.71,0,0,0,614,100.61a29.94,29.94,0,0,0,6.64-10.17,35.62,35.62,0,0,0,0-25.55A30.14,30.14,0,0,0,614,54.72Zm.33,23a26.48,26.48,0,0,1-1.7,9.51,24,24,0,0,1-4.77,7.75,22.26,22.26,0,0,1-7.32,5.21,24.2,24.2,0,0,1-18.8,0,22.36,22.36,0,0,1-7.32-5.21,24.1,24.1,0,0,1-4.76-7.75,27.45,27.45,0,0,1,0-19,23.89,23.89,0,0,1,4.76-7.75,22.26,22.26,0,0,1,7.32-5.21,24.09,24.09,0,0,1,18.8,0,22.26,22.26,0,0,1,7.32,5.21,23.85,23.85,0,0,1,4.77,7.75A26.4,26.4,0,0,1,614.34,77.67Z" transform="translate(-79.24 -43.04)"/><polygon class="cls-2" points="598.02 4.12 598.02 53.01 564.09 4.34 563.93 4.12 554.15 4.12 554.15 65.14 562.32 65.14 562.32 16.24 596.25 64.91 596.41 65.14 606.2 65.14 606.2 4.12 598.02 4.12"/><path class="cls-3" d="M105.6,116.07c1-1.87-1.17-3.85-2.43-2.2C95.41,124,84.48,143.82,86.86,161.4c1.88,13.9,7.27,24.45,13.22,31.29,1,1.2,2.78-.39,2-1.8-12.35-20.95-10.65-46.47,1-69.83C103.74,119.66,104.6,117.88,105.6,116.07Z" transform="translate(-79.24 -43.04)"/><polygon class="cls-4" points="319.06 132.57 326.89 132.57 326.89 105.93 356.35 105.93 356.35 132.57 364.19 132.57 364.19 74.36 356.35 74.36 356.35 98.57 326.89 98.57 326.89 74.36 319.06 74.36 319.06 132.57"/><polygon class="cls-4" points="377.34 132.57 415.77 132.57 415.77 125.21 385.18 125.21 385.18 105.93 412.38 105.93 412.38 98.57 385.18 98.57 385.18 81.71 414.32 81.71 414.32 74.36 377.34 74.36 377.34 132.57"/><path class="cls-4" d="M497.55,175.61h8.83l5.9-14.05h27.87L546,175.61H555l-24.61-57.89-.13-.32h-7.07Zm17.84-21.4,11.14-26.38,10.61,26.38Z" transform="translate(-79.24 -43.04)"/><polygon class="cls-4" points="482.04 132.57 516.03 132.57 516.03 125.21 489.88 125.21 489.88 74.36 482.04 74.36 482.04 132.57"/><polygon class="cls-4" points="527.65 132.57 535.49 132.57 535.49 81.71 554.38 81.71 554.38 74.36 508.76 74.36 508.76 81.71 527.65 81.71 527.65 132.57"/><polygon class="cls-4" points="561.32 132.57 569.15 132.57 569.15 105.93 598.61 105.93 598.61 132.57 606.45 132.57 606.45 74.36 598.61 74.36 598.61 98.57 569.15 98.57 569.15 74.36 561.32 74.36 561.32 132.57"/><polygon class="cls-4" points="135.08 132.42 142.92 132.42 142.92 106.75 169.56 106.75 169.56 99.39 142.92 99.39 142.92 81.55 171.58 81.55 171.58 74.2 135.08 74.2 135.08 132.42"/><path class="cls-4" d="M255.91,146.35a32.51,32.51,0,0,0,2.26,12.19,28.71,28.71,0,0,0,6.33,9.7,29.51,29.51,0,0,0,9.62,6.38,33.45,33.45,0,0,0,24.38,0,29.41,29.41,0,0,0,9.62-6.38,28.59,28.59,0,0,0,6.34-9.7,34,34,0,0,0,0-24.37,28.63,28.63,0,0,0-6.34-9.71,29.43,29.43,0,0,0-9.62-6.37,33.45,33.45,0,0,0-24.38,0,29.54,29.54,0,0,0-9.62,6.37,28.81,28.81,0,0,0-6.33,9.7A32.59,32.59,0,0,0,255.91,146.35Zm8.32,0a25.28,25.28,0,0,1,1.62-9,22.65,22.65,0,0,1,4.54-7.38,21.31,21.31,0,0,1,7-5,23,23,0,0,1,17.9,0,21.46,21.46,0,0,1,7,5,22.79,22.79,0,0,1,4.53,7.37,26.14,26.14,0,0,1,0,18.12,22.84,22.84,0,0,1-4.53,7.38,21.29,21.29,0,0,1-7,5,23,23,0,0,1-17.9,0,21.14,21.14,0,0,1-7-5,22.75,22.75,0,0,1-4.54-7.38A25.29,25.29,0,0,1,264.23,146.35Z" transform="translate(-79.24 -43.04)"/><path class="cls-4" d="M326.56,175.46h7.84V149.79h7.89l11.83,19.58-.17.12.41.45.07-.06,3.37,5.58h9.56L351,149a18.34,18.34,0,0,0,10-4.94A14.53,14.53,0,0,0,365,133.51a16,16,0,0,0-2.1-8.72,13.79,13.79,0,0,0-5.46-4.91,22.57,22.57,0,0,0-7.48-2.15,68.85,68.85,0,0,0-8.26-.49H326.56Zm7.84-50.87h9a38.51,38.51,0,0,1,4.9.32,13.25,13.25,0,0,1,4.26,1.28,7.67,7.67,0,0,1,3,2.69,8.37,8.37,0,0,1,1.13,4.63,7.55,7.55,0,0,1-1.53,5.11,9.15,9.15,0,0,1-4,2.63,19.54,19.54,0,0,1-5.43,1c-2,.11-3.93.16-5.82.16H334.4Z" transform="translate(-79.24 -43.04)"/></svg>