<svg xmlns="http://www.w3.org/2000/svg" xmlns:xlink="http://www.w3.org/1999/xlink" width="27" height="45" viewBox="0 0 27 45"><defs><path id="kt2wa" d="M548.094 1045.94h-16.71c-.631 0-1.144-.272-1.144-.606v-1.364h18.999v1.364c0 .334-.513.605-1.145.605"/><path id="kt2wb" d="M548.094 1045.94h-16.71c-.631 0-1.144-.272-1.144-.606v-1.364h18.999v1.364c0 .334-.513.605-1.145.605z"/><path id="kt2wc" d="M529.29 1043.965a2.29 2.29 0 0 1-2.29-2.29v-32.006l3.789-3.789h17.906l3.788 3.789v32.006a2.29 2.29 0 0 1-2.29 2.29z"/><path id="kt2wd" d="M550.193 1043.965H529.29a2.29 2.29 0 0 1-2.29-2.29v-32.006l3.789-3.789h17.906l3.788 3.789v32.006a2.29 2.29 0 0 1-2.29 2.29z"/><path id="kt2we" d="M548.683 1005.881h-17.882c-.79 0-1.431-.64-1.431-1.431v-.019c0-.79.64-1.431 1.431-1.431h17.882c.79 0 1.431.64 1.431 1.431v.019c0 .79-.64 1.431-1.431 1.431"/><path id="kt2wf" d="M548.683 1005.881h-17.882c-.79 0-1.431-.64-1.431-1.431v-.019c0-.79.64-1.431 1.431-1.431h17.882c.79 0 1.431.64 1.431 1.431v.019c0 .79-.64 1.431-1.431 1.431z"/></defs><g><g transform="translate(-526 -1002)"><use fill="#d5d6db" xlink:href="#kt2wa"/></g><g transform="translate(-526 -1002)"><use fill="#fff" fill-opacity="0" stroke="#333" stroke-linejoin="round" stroke-miterlimit="50" xlink:href="#kt2wb"/></g><g transform="translate(-526 -1002)"><use fill="#e64c3c" xlink:href="#kt2wc"/></g><g transform="translate(-526 -1002)"><use fill="#fff" fill-opacity="0" stroke="#333" stroke-linejoin="round" stroke-miterlimit="50" xlink:href="#kt2wd"/></g><g transform="translate(-526 -1002)"><use fill="#d5d6db" xlink:href="#kt2we"/></g><g transform="translate(-526 -1002)"><use fill="#fff" fill-opacity="0" stroke="#333" stroke-linejoin="round" stroke-miterlimit="50" xlink:href="#kt2wf"/></g></g></svg>