<svg width="61" height="60" viewBox="0 0 61 60" fill="none" xmlns="http://www.w3.org/2000/svg">
<g clip-path="url(#clip0)">
<path d="M51.4977 10.0039L48.4983 12.0035L43.4993 11.0036L40.4999 10.0038L36.5006 11.0036L33.5012 10.0038L35.5008 6.00453H39.4999L43.4191 4.04492C46.4418 5.54082 49.1762 7.55844 51.4977 10.0039Z" fill="white"/>
<path d="M28.5025 6.00492L27.5026 9.00434L24.5032 10.0042L21.5038 15.0032L16.5048 18.0026L9.50624 19.0024V22.0018L11.5058 24.0014V28.0007L8.5064 26.0011L5.50698 24.0013L3.76733 18.7724C6.76183 11.6368 12.4856 5.9959 19.6642 3.10547L22.5036 5.00508L28.5025 6.00492Z" fill="white"/>
<path d="M30.5019 33.9995L29.5022 38.9985L25.5029 42.9976V45.997L21.5038 48.9964V53.9954L18.5043 52.9956L16.5047 47.9966V37.9986L11.5057 36.9988L9.5061 32.9996V30.0002L11.5057 28.0006L14.5051 25.0012L16.5047 29.0004H23.5033L26.5027 33.9995H30.5019Z" fill="white"/>
<path d="M55.7969 15.8329C61.2548 25.5701 60.6329 37.5766 54.1972 46.6967L51.4978 43.9973V39.9982L49.4982 35.9989L47.4987 31.9998V28.0005L44.4992 26.001L40.5001 27.0008L33.5016 24.0014L32.5017 17.0028L35.5011 14.0034H41.4999L43.4995 17.0028L49.4983 18.0027L55.4972 16.0031L55.7969 15.8329Z" fill="white"/>
<path d="M36.1462 11.4773C36.2369 11.5077 36.3344 11.5114 36.4271 11.4881L40.2633 10.5234L43.1081 11.4773C43.1279 11.4839 43.148 11.4893 43.1685 11.4934L48.1412 12.4938C48.2718 12.52 48.4076 12.4931 48.5183 12.4189L51.1488 10.655C52.5431 12.1676 53.7674 13.8301 54.7994 15.6124L49.1939 17.4918L43.5639 16.5479L41.6948 13.7279C41.6022 13.5881 41.4457 13.5041 41.278 13.5041H35.3107C35.1776 13.5041 35.05 13.5572 34.9561 13.6516L31.9725 16.6526C31.862 16.7638 31.81 16.9203 31.832 17.0755L32.8266 24.0778C32.8511 24.2503 32.9637 24.3977 33.1237 24.4666L40.0855 27.4677C40.1864 27.5112 40.2988 27.5202 40.4054 27.4934L44.1678 26.5473L46.7452 28.2755V32.0101C46.7452 32.0873 46.7631 32.1635 46.7975 32.2327L48.7865 36.234L50.7233 40.1302V44.0141C50.7233 44.1462 50.7756 44.2729 50.8688 44.3666L53.2566 46.7684C44.1594 59.3456 26.6767 62.2781 14.0034 53.2817L13.714 53.6894L14.0034 53.2817C3.51749 45.8381 -0.64397 32.2803 3.70551 20.2526L4.99939 24.1643C5.03429 24.2698 5.10334 24.3606 5.19563 24.4225L8.17929 26.4232L10.6593 28.0861L9.09782 29.6572C9.00471 29.7509 8.95245 29.8776 8.95245 30.0097V33.0107C8.95245 33.0879 8.97034 33.1641 9.00472 33.2333L10.9938 37.2347C11.0626 37.373 11.1914 37.4718 11.3429 37.5023L15.9142 38.4219V48.0159C15.9142 48.0791 15.9262 48.1418 15.9496 48.2006L17.9387 53.2023C17.993 53.339 18.1049 53.4449 18.2443 53.4916L21.228 54.492C21.3805 54.5431 21.5483 54.5178 21.6789 54.4238C21.8095 54.3299 21.8869 54.1788 21.8869 54.0179V49.2654L25.6663 46.4144C25.7915 46.3199 25.8652 46.1721 25.8652 46.0152V43.2204L29.698 39.3653C29.7674 39.2955 29.8146 39.2068 29.8338 39.1103L30.8284 34.1086C30.8576 33.9618 30.8195 33.8096 30.7245 33.6939C30.6295 33.5782 30.4877 33.5111 30.338 33.5111H26.6438L23.8056 28.7533C23.7154 28.602 23.5523 28.5094 23.3762 28.5094H16.7243L14.8731 24.7854C14.8014 24.6411 14.6645 24.5402 14.5053 24.5144C14.3462 24.4886 14.1845 24.5412 14.0708 24.6555L11.9417 26.7969V24.0076C11.9417 23.8755 11.8895 23.7488 11.7963 23.6551L9.95269 21.8007V19.4392L16.4856 18.5005C16.5518 18.4909 16.6155 18.4682 16.6728 18.4336L21.6455 15.4326C21.7158 15.3902 21.7745 15.3311 21.8166 15.2607L24.7054 10.418L27.5134 9.4765C27.6626 9.42647 27.7796 9.30911 27.8291 9.15973L28.8237 6.15869C28.8696 6.02011 28.8527 5.86838 28.7773 5.74333C28.702 5.61828 28.5757 5.53242 28.4317 5.50828L22.5711 4.52579L20.6328 3.22145C27.6049 0.666752 35.2975 0.965294 42.0528 4.05178L39.1703 5.5014H35.3108C35.121 5.5014 34.9476 5.60887 34.8631 5.77884L32.874 9.78025C32.8097 9.90973 32.8045 10.0607 32.8599 10.1943C32.9153 10.3279 33.0257 10.4309 33.1628 10.4769L36.1462 11.4773Z" fill="#E6F4FB" stroke="#333333" stroke-linejoin="round"/>
<circle cx="30.5" cy="30" r="28.55" stroke="#333333" stroke-width="1.1"/>
</g>
<defs>
<clipPath id="clip0">
<rect width="60" height="60" fill="white" transform="translate(0.5)"/>
</clipPath>
</defs>
</svg>
