<svg xmlns="http://www.w3.org/2000/svg" width="90" height="77" viewBox="0 0 90 77"><g><g><path fill="#b6dcfe" d="M27.636 75.484H4.516A3.556 3.556 0 0 1 .96 71.928V34.777L3.205 22.36h25.676l2.311 12.417v37.15a3.556 3.556 0 0 1-3.556 3.557"/></g><g clip-path="url(#clip-399F275C-0A4F-4CAA-A97A-1493849D6AA3)"><path fill="#333" d="M6.034 5.563c.032-1.113-.007-2.228.011-3.343C6.067.876 6.817.032 8.158.024c5.33-.032 10.66-.033 15.991.002 1.33.01 2.066.87 2.087 2.227.016 1.083-.028 2.169.012 3.252.04 1.091-.277 1.954-1.403 2.47.672 2.063 1.33 4.11 2.004 6.152 1.47 4.454 2.933 8.91 4.427 13.355a18.913 18.913 0 0 1 1.003 6.113c-.016 12.559-.058 25.118.023 37.676.025 3.65-2.53 5.657-5.605 5.633-7.047-.055-14.095-.013-21.142-.02-2.785-.002-4.81-1.404-5.383-3.76-.147-.605-.156-1.253-.157-1.882C.007 58.714.018 46.186 0 33.657c-.003-2.164.358-4.24 1.04-6.288 2.063-6.185 4.087-12.382 6.125-18.575.084-.253.16-.51.258-.827-1.095-.513-1.42-1.346-1.39-2.404zM30.38 33.721c-.011-1.339-.098-2.74-.498-4.003-2.239-7.063-4.589-14.09-6.882-21.136-.178-.548-.539-.528-.97-.527-3.915.006-7.832.019-11.748-.013-.617-.005-.875.176-1.068.767-1.833 5.62-3.69 11.231-5.566 16.837-.866 2.591-1.783 5.155-1.78 7.95.018 12.532.007 25.064.01 37.596 0 2.552 1.212 3.76 3.76 3.76 6.959.002 13.918 0 20.876 0 2.73 0 3.887-1.161 3.888-3.906V52.248c0-6.176.028-12.351-.022-18.527zM8.032 6.01h16.193V2.067H8.032z"/></g><g><path fill="#333" d="M85.126 53.584c0 3.617-2.527 6.145-6.144 6.145H75.91V47.44h3.072c3.617 0 6.144 2.527 6.144 6.144zm-7.168 4.098h1.024c2.489 0 4.096-1.608 4.096-4.098 0-2.49-1.607-4.098-4.096-4.098h-1.024z"/></g><g><path fill="#333" d="M45.903 73.051C40.553 70.286 37 64.956 37 58.697V39.24h40.962v4.096h1.024c6.29 0 10.208 3.892 10.24 10.163.03 5.696-4.608 10.318-10.304 10.318h-2.226c-1.215 4.092-3.79 7.294-7.194 9.225-.702.56-2.183 1.133-3.172 1.687a2.87 2.87 0 0 1-1.403.361l-14.879.008m28.938-13.335c4.67 0 8.192-3.521 8.192-8.19 0-5.205-2.986-8.19-8.192-8.19h-3.072v-4.095H39.048v17.403c0 8.038 6.748 14.332 15.36 14.332h7.17c6.622 0 11.734-4.017 13.342-10.483l.193-.777h3.873"/></g></g></svg>