<svg width="59" height="66" viewBox="0 0 59 66" fill="none" xmlns="http://www.w3.org/2000/svg">
<path d="M3.65103 48.3119C2.97663 46.5743 3.53064 44.5323 5.09449 43.4216C7.94428 41.3836 13.2182 41.3504 14.7283 41.386C14.9353 41.4053 15.0761 41.5754 15.0052 41.7782C14.5653 43.1504 12.8679 47.9648 10.112 50.1161C7.92137 51.7967 4.61092 50.9132 3.65103 48.3119V48.3119ZM51.8518 49.6516C49.7632 46.8406 45.0194 45.0913 43.6559 44.5982C43.4537 44.527 43.2841 44.6683 43.265 44.8758C43.2342 46.3385 43.159 51.6699 45.1345 54.5751C46.2373 56.1954 48.2734 56.751 50.0011 56.1265C52.595 55.1639 53.5228 51.9005 51.8518 49.6516V49.6516ZM33.2402 12.175C33.7059 12.2183 34.1016 11.8887 34.1448 11.4217C34.1879 10.9546 33.8593 10.5577 33.3936 10.5145C32.928 10.4712 32.5322 10.8007 32.489 11.2678C32.4459 11.7348 32.7745 12.1317 33.2402 12.175ZM42.716 9.02572C43.2852 9.07865 43.9684 8.46175 44.0259 7.83908C44.0835 7.21634 43.5202 6.53591 42.951 6.48304C42.3818 6.43011 41.8069 7.00475 41.7493 7.62742C41.7483 8.20306 42.1469 8.97285 42.716 9.02572ZM47.6376 16.7582C46.4476 16.6475 45.2976 17.7967 45.1777 19.0941C45.0578 20.3913 45.9584 21.9405 47.1485 22.0511C48.3385 22.1618 49.8133 20.8857 49.9332 19.5884C50.0013 18.2863 48.7759 16.864 47.6376 16.7582V16.7582ZM53.0266 15.4795C52.5609 15.4363 52.1652 15.7659 52.122 16.2329C52.0789 16.6999 52.4075 17.0968 52.8731 17.1401C53.3388 17.1834 53.7346 16.8538 53.7777 16.3868C53.8161 15.9716 53.4923 15.5228 53.0266 15.4795ZM52.1902 25.66C51.0645 23.7236 46.3406 24.0172 44.6543 22.4997C43.0197 20.987 42.1367 3.99983 33.355 3.02654C26.8451 2.31679 29.959 16.0571 22.1313 18.3128C16.6618 19.8979 15.1087 6.77375 9.60092 8.77406C8.35805 9.23424 6.1928 17.9828 6.11254 26.1923C6.05557 31.8919 8.38247 38.3364 8.2396 39.3175C8.12071 40.0392 8.79236 40.6774 9.48422 40.5323C11.6067 40.1538 13.592 40.129 14.7351 40.1829C15.2056 40.1743 15.6521 40.4252 15.929 40.8173C16.2059 41.2094 16.2662 41.6861 16.1195 42.1434C15.5234 44.0768 13.7321 48.7778 10.8114 51.0185C10.1942 51.4845 10.0141 52.3052 10.3704 52.9664C13.7054 58.6671 20.0311 62.5003 27.1389 62.9511C33.9833 63.4302 40.2693 60.3511 44.2347 55.2765L44.1878 55.2198C42.0714 52.1446 42.0335 46.9072 42.0701 44.8171C42.0615 44.3453 42.3116 43.8975 42.6978 43.6717C43.0887 43.394 43.564 43.3335 44.0201 43.4806C44.8288 43.7651 46.1923 44.2582 47.687 45.0252C48.3874 45.352 49.244 45.1176 49.6216 44.4199C50.5512 42.8315 51.7539 41.1115 51.9687 39.352C52.7703 32.9366 50.7185 35.9385 50.2894 33.8051C49.7617 31.6102 53.3159 27.5965 52.1902 25.66V25.66Z" stroke="white" stroke-width="6" stroke-miterlimit="10"/>
<path d="M37.562 29.2201C37.2515 29.1913 36.9688 29.4267 36.94 29.7381C36.9113 30.0494 37.146 30.3329 37.4565 30.3618C37.767 30.3906 38.0496 30.1552 38.0784 29.8439C38.1072 29.5325 37.8724 29.249 37.562 29.2201V29.2201ZM47.0797 39.7349C46.7692 39.706 46.4866 39.9415 46.4578 40.2528C46.429 40.5641 46.6637 40.8476 46.9742 40.8765C47.2847 40.9053 47.5673 40.6699 47.5961 40.3586C47.6249 40.0473 47.3902 39.7637 47.0797 39.7349V39.7349ZM28.3811 22.4003C28.1223 22.3763 27.8445 22.5598 27.8157 22.8711C27.7917 23.1306 27.9747 23.4092 28.2852 23.4381C28.5439 23.4622 28.8218 23.2786 28.8505 22.9673C28.8793 22.656 28.6398 22.4243 28.3811 22.4003V22.4003ZM19.6798 56.1346C19.2659 56.0961 18.8701 56.4257 18.8269 56.8927C18.7838 57.3598 19.1076 57.8088 19.5216 57.8471C19.9355 57.8854 20.3312 57.5557 20.3744 57.0889C20.3658 56.617 20.089 56.2249 19.6798 56.1346ZM18.0453 30.3371C17.7349 30.3082 17.4522 30.5436 17.3716 30.8502C17.3429 31.1615 17.5776 31.445 17.8881 31.4739C18.1985 31.5028 18.4812 31.2673 18.5617 30.9608C18.5905 30.6494 18.3558 30.3659 18.0453 30.3371ZM6.39913 45.1129C6.03689 45.0792 5.69769 45.3617 5.65931 45.7769C5.62099 46.192 5.89784 46.5842 6.26002 46.6178C6.62226 46.6515 6.96147 46.369 6.99984 45.9538C7.03822 45.5387 6.81302 45.1514 6.39913 45.1129ZM42.6941 40.3218L32.9943 39.6819L42.9992 35.3256L42.6941 40.3218ZM15.9847 38.5196L26.2536 39.2124L16.9155 33.5293L15.9847 38.5196ZM36.818 45.7421C36.533 49.955 32.9002 53.124 28.6996 52.8382C24.4988 52.5524 21.339 48.9091 21.6239 44.6962L36.818 45.7421V45.7421Z" stroke="white" stroke-width="6" stroke-miterlimit="10"/>
<path d="M14.7633 40.7867L14.784 40.7886C14.9203 40.8013 15.057 40.8425 15.1801 40.9135C15.0437 40.8255 14.8916 40.7801 14.7461 40.7828L14.7265 40.7832L14.7069 40.7822C13.5988 40.73 11.6631 40.754 9.5974 41.1215C8.49363 41.3458 7.46912 40.3546 7.64565 39.2319C7.64628 39.2279 7.64692 39.224 7.64758 39.22L14.7633 40.7867ZM14.7633 40.7867L14.7425 40.7862C13.9705 40.768 12.2391 40.7672 10.3313 41.0319C8.44204 41.2941 6.29263 41.8276 4.74656 42.9328C2.95148 44.2081 2.32297 46.5422 3.08987 48.5243C4.1477 51.3818 7.64324 52.4131 10.1298 50.835M14.7633 40.7867L10.1298 50.835M10.1298 50.835C9.54383 51.495 9.41213 52.453 9.84224 53.2511L9.84723 53.2603L9.85253 53.2694C13.2939 59.152 19.8047 63.0864 27.0987 63.5498C34.1523 64.0429 40.6265 60.8684 44.7075 55.646L44.9558 55.3282C46.2687 56.8641 48.3905 57.3467 50.205 56.6908L50.2098 56.6891C53.1915 55.5825 54.2347 51.8526 52.3335 49.2938C51.2076 47.7786 49.4027 46.5876 47.7611 45.7246C47.7018 45.6934 47.6425 45.6625 47.5834 45.6321C48.514 45.9824 49.627 45.6587 50.144 44.7151C50.2829 44.4781 50.4324 44.2308 50.5861 43.9766C50.9254 43.4154 51.285 42.8207 51.5949 42.2281C52.0519 41.3541 52.4436 40.4101 52.564 39.4263C52.7661 37.8091 52.7962 36.7322 52.6996 36.0003C52.6013 35.2553 52.3571 34.7693 51.9286 34.4771C51.7369 34.3463 51.5412 34.2791 51.4051 34.2352C51.3739 34.2251 51.3462 34.2163 51.3214 34.2084C51.2209 34.1764 51.1668 34.1592 51.1116 34.1319C51.0642 34.1084 51.0353 34.0854 51.0069 34.0454C50.9732 33.9981 50.9199 33.8969 50.8776 33.6867L50.8754 33.6757L50.8728 33.6648C50.7823 33.2884 50.857 32.7626 51.0906 32.0706C51.2885 31.4841 51.5708 30.8586 51.8681 30.1996C51.9156 30.0943 51.9635 29.9882 52.0115 29.8812C52.3503 29.126 52.6953 28.3269 52.8768 27.5832C53.056 26.8489 53.1077 26.0446 52.7089 25.3585C52.3327 24.7113 51.6873 24.3005 51.011 24.0111C50.3299 23.7197 49.5346 23.5175 48.7691 23.3385C48.612 23.3018 48.4562 23.2661 48.3023 23.2307C47.6868 23.0894 47.0991 22.9545 46.5624 22.7883C45.8897 22.5799 45.3825 22.3458 45.0601 22.0578C45.0407 22.0388 44.9819 21.9655 44.8967 21.7856C44.814 21.6109 44.7255 21.3776 44.6305 21.0839C44.4403 20.4959 44.2421 19.7245 44.0166 18.8118C43.9669 18.6107 43.916 18.4033 43.8637 18.1902C43.4454 16.4853 42.9391 14.4215 42.2539 12.3707C41.4842 10.0669 40.4741 7.73241 39.0717 5.90217C37.6628 4.06353 35.8271 2.69686 33.421 2.43019L33.42 2.43008C32.4987 2.32963 31.7064 2.4827 31.0298 2.86455C30.3607 3.24215 29.851 3.81731 29.4433 4.48609C28.6791 5.73979 28.2003 7.45683 27.7248 9.16194C27.703 9.24005 27.6812 9.31814 27.6594 9.39616C27.1494 11.2215 26.6186 13.056 25.7508 14.5753C24.8946 16.0746 23.7324 17.227 21.9652 17.7363L21.9643 17.7365C20.8808 18.0505 19.9725 17.6708 19.0595 16.7803C18.1341 15.8776 17.3048 14.5431 16.4238 13.1253L16.3901 13.071C15.522 11.6741 14.5973 10.1926 13.5193 9.20177C12.9721 8.6988 12.358 8.29506 11.6598 8.09734C10.9516 7.89675 10.196 7.9196 9.3961 8.2101L9.3961 8.21009L9.39259 8.21139C9.19072 8.28613 9.03331 8.42199 8.91649 8.54882C8.79507 8.68064 8.68409 8.83949 8.58203 9.01081C8.37789 9.35345 8.17652 9.80206 7.98085 10.3251C7.58807 11.375 7.19115 12.7988 6.83429 14.4505C6.12007 17.7561 5.55315 22.0362 5.51257 26.1864L10.1298 50.835ZM42.6698 44.7981C42.6683 44.5651 42.7829 44.3495 42.9443 44.2274C42.7833 44.3844 42.6937 44.5911 42.6698 44.7981ZM45.0022 5.00534L44.9997 5.03236L44.9996 5.0595C44.9989 5.46976 45.1353 5.91626 45.3615 6.27545C45.5816 6.62505 45.9638 7.00543 46.5108 7.05626C47.0199 7.10361 47.4922 6.85655 47.8157 6.56377C48.1445 6.26625 48.4276 5.82635 48.4737 5.32741C48.5203 4.82356 48.3175 4.34766 48.0413 4.00439C47.7681 3.66478 47.3492 3.3645 46.8569 3.31874C46.3515 3.27175 45.9013 3.50393 45.5914 3.8038C45.2788 4.10628 45.0457 4.53466 45.0022 5.00534ZM54.381 17.0767L54.3821 17.0648L54.3827 17.0529C54.4267 16.2117 54.0575 15.3878 53.5503 14.7751C53.0477 14.1681 52.3234 13.6664 51.5434 13.5939C50.7345 13.5187 49.9849 13.8734 49.4399 14.3996C48.8937 14.9269 48.5048 15.6691 48.4306 16.472C48.357 17.2681 48.5942 18.111 49.0162 18.7732C49.4339 19.4288 50.0994 20.0032 50.9433 20.0817C51.7585 20.1575 52.5818 19.7642 53.1883 19.2318C53.7994 18.6954 54.303 17.9207 54.381 17.0767ZM55.3748 11.0439L55.3748 11.0439C55.3014 11.8391 55.8708 12.5297 56.6679 12.6038C57.4652 12.6778 58.152 12.1038 58.2255 11.3082C58.292 10.5891 57.7532 9.82461 56.9324 9.74836C56.1351 9.67429 55.4484 10.2484 55.3748 11.0439Z" fill="#E6F4FB" stroke="#333333" stroke-width="1.2"/>
<path opacity="0.19" d="M37.5621 29.2202C37.2516 29.1913 36.9689 29.4267 36.9401 29.7381C36.9114 30.0495 37.1461 30.333 37.4566 30.3618C37.767 30.3907 38.0497 30.1553 38.0784 29.8439C38.1072 29.5325 37.8725 29.249 37.5621 29.2202Z" fill="white"/>
<path opacity="0.4" d="M47.0799 39.7349C46.7694 39.706 46.4867 39.9415 46.4579 40.2528C46.4292 40.5641 46.6639 40.8476 46.9744 40.8765C47.2848 40.9053 47.5675 40.6699 47.5962 40.3586C47.625 40.0473 47.3903 39.7637 47.0799 39.7349ZM28.3813 22.4003C28.1225 22.3763 27.8447 22.5598 27.8159 22.8711C27.7919 23.1306 27.9749 23.4092 28.2853 23.4381C28.544 23.4622 28.8219 23.2786 28.8507 22.9673C28.8795 22.656 28.6399 22.4243 28.3813 22.4003ZM19.68 56.1346C19.266 56.0961 18.8703 56.4257 18.8271 56.8927C18.784 57.3598 19.1078 57.8088 19.5217 57.8471C19.9357 57.8854 20.3314 57.5557 20.3746 57.0889C20.366 56.617 20.0891 56.2249 19.68 56.1346Z" fill="white"/>
<path opacity="0.19" d="M18.0453 30.3369C17.7349 30.308 17.4522 30.5434 17.3716 30.85C17.3429 31.1613 17.5776 31.4448 17.8881 31.4737C18.1985 31.5026 18.4812 31.2671 18.5617 30.9606C18.5905 30.6492 18.3558 30.3657 18.0453 30.3369ZM6.39913 45.1127C6.03689 45.079 5.69769 45.3615 5.65931 45.7767C5.62099 46.1918 5.89784 46.584 6.26002 46.6176C6.62226 46.6513 6.96147 46.3688 6.99984 45.9536C7.03822 45.5385 6.81302 45.1512 6.39913 45.1127Z" fill="white"/>
<path d="M15.9849 38.5196L26.2537 39.2123L16.9157 33.5293M42.6942 40.3217L32.9945 39.6819L42.9993 35.3256L42.6942 40.3217Z" stroke="#333333" stroke-width="1.2" stroke-miterlimit="10" stroke-linecap="round" stroke-linejoin="round"/>
<path d="M36.8181 45.7419C36.5331 49.9548 32.9003 53.1238 28.6997 52.838C24.4989 52.5522 21.3391 48.909 21.624 44.696L36.8181 45.7419Z" fill="#333333"/>
</svg>
