<svg xmlns="http://www.w3.org/2000/svg" width="54" height="78" viewBox="0 0 54 78"><g><g><path fill="#333" d="M50.613 70.482a3.928 3.928 0 0 1-3.923 3.924H7.459a3.928 3.928 0 0 1-3.924-3.924V7.7A3.928 3.928 0 0 1 7.46 3.776h39.23A3.928 3.928 0 0 1 50.614 7.7zM46.7 1.16H7.459A6.547 6.547 0 0 0 .92 7.7v62.782a6.547 6.547 0 0 0 6.54 6.54h39.239a6.547 6.547 0 0 0 6.54-6.54V7.7a6.547 6.547 0 0 0-6.54-6.54z"/><path fill="none" stroke="#fff" stroke-miterlimit="50" stroke-width=".6" d="M50.613 70.482a3.928 3.928 0 0 1-3.923 3.924H7.459a3.928 3.928 0 0 1-3.924-3.924V7.7A3.928 3.928 0 0 1 7.46 3.776h39.23A3.928 3.928 0 0 1 50.614 7.7zM46.7 1.16H7.459A6.547 6.547 0 0 0 .92 7.7v62.782a6.547 6.547 0 0 0 6.54 6.54h39.239a6.547 6.547 0 0 0 6.54-6.54V7.7a6.547 6.547 0 0 0-6.54-6.54z"/></g><g><path fill="#333" d="M25.767 33.866V49.55H10.075V33.866zM44.074 49.55H28.382V33.866h15.692zM28.382 67.863V52.177h15.692v15.686zM10.075 52.177h15.692v15.686H10.075zM7.46 70.49h39.239V31.25H7.46z"/><path fill="none" stroke="#fff" stroke-miterlimit="50" stroke-width=".6" d="M25.767 33.866V49.55H10.075V33.866zM44.074 49.55H28.382V33.866h15.692zM28.382 67.863V52.177h15.692v15.686zM10.075 52.177h15.692v15.686H10.075zM7.46 70.49h39.239V31.25H7.46z"/></g><g><path fill="#333" d="M10.075 11.626h33.999v13.08H10.075zM7.46 27.32h39.239V9.01H7.46z"/><path fill="none" stroke="#fff" stroke-miterlimit="50" stroke-width=".6" d="M10.075 11.626h33.999v13.08H10.075zM7.46 27.32h39.239V9.01H7.46z"/></g><g><path fill="#333" d="M16.614 46.944h2.616V43.02h3.924v-2.616H19.23V36.48h-2.616v3.924H12.69v2.616h3.924z"/><path fill="none" stroke="#fff" stroke-miterlimit="50" stroke-width=".6" d="M16.614 46.944v0h2.616v0-3.924 0h3.924v0-2.616 0H19.23v0-3.924 0h-2.616v3.924H12.69v2.616h3.924v0z"/></g><g><path fill="#333" d="M31 40.4h10.464v2.616H31z"/><path fill="none" stroke="#fff" stroke-miterlimit="50" stroke-width=".6" d="M31 40.4v0h10.464v2.616H31v0z"/></g><g><path fill="#333" d="M24.073 55.72l-1.85-1.85-4.306 4.307-4.308-4.307-1.849 1.85 4.307 4.307-4.307 4.307 1.85 1.85 4.307-4.308 4.307 4.307 1.85-1.85-4.308-4.306z"/><path fill="none" stroke="#fff" stroke-miterlimit="50" stroke-width=".6" d="M24.073 55.72v0l-1.85-1.85v0l-4.306 4.307v0l-4.308-4.307v0l-1.849 1.85v0l4.307 4.307v0l-4.307 4.307v0l1.85 1.85v0l4.307-4.308v0l4.307 4.307v0l1.85-1.85v0l-4.308-4.306v0z"/></g><g><path fill="#fff" d="M31 56.1h10.464v2.616H31z"/><path fill="#008fd6" fill-opacity=".7" d="M31 56.1h10.464v2.616H31z"/><path fill="none" stroke="#fff" stroke-miterlimit="50" stroke-width=".6" d="M31 56.1v0h10.464v2.616H31v0z"/></g><g><path fill="#fff" d="M31 61.33h10.464v2.616H31z"/><path fill="#008fd6" fill-opacity=".7" d="M31 61.33h10.464v2.616H31z"/><path fill="none" stroke="#fff" stroke-miterlimit="50" stroke-width=".6" d="M31 61.33v0h10.464v2.616H31v0z"/></g></g></svg>